<svg xmlns="http://www.w3.org/2000/svg" width="1440" height="1024" viewBox="0 0 1440 1024">
  <rect width="1440" height="1024" fill="#f5f1e8"/>
  <style>text{font-family:Inter,Arial,sans-serif} .h{font-weight:700;fill:#111827} .m{fill:#64748b;font-size:14px} .t{fill:#111827;font-size:14px} .small{fill:#64748b;font-size:12px} .num{font-weight:700;fill:#2563eb;font-size:42px}</style>
  <rect x="0" y="0" width="236" height="1024" fill="#ffffff" stroke="#d9e2ec"/>
  <text x="28" y="46" class="h" font-size="22">Photo Engine</text>
  <text x="28" y="72" class="m">Location-Time-Subject</text>
  <rect x="18" y="126" width="200" height="38" rx="8" fill="#2563eb" opacity="1"/><text x="54" y="151" class="t">Opportunities</text><circle cx="34" cy="145" r="6" fill="#16a34a"/><rect x="18" y="180" width="200" height="38" rx="8" fill="#f8fafc" opacity="0.9"/><text x="54" y="205" class="t">Spots</text><circle cx="34" cy="199" r="6" fill="#64748b"/><rect x="18" y="234" width="200" height="38" rx="8" fill="#f8fafc" opacity="0.9"/><text x="54" y="259" class="t">Factor Research</text><circle cx="34" cy="253" r="6" fill="#64748b"/><rect x="18" y="288" width="200" height="38" rx="8" fill="#f8fafc" opacity="0.9"/><text x="54" y="313" class="t">Photo Evidence</text><circle cx="34" cy="307" r="6" fill="#64748b"/><rect x="18" y="342" width="200" height="38" rx="8" fill="#f8fafc" opacity="0.9"/><text x="54" y="367" class="t">Loop</text><circle cx="34" cy="361" r="6" fill="#64748b"/><rect x="18" y="396" width="200" height="38" rx="8" fill="#f8fafc" opacity="0.9"/><text x="54" y="421" class="t">Agent Packets</text><circle cx="34" cy="415" r="6" fill="#64748b"/>
  <text x="268" y="42" class="h" font-size="24">Factor Research Studio</text>
  <text x="268" y="68" class="m">Calm analytical workspace centered on photo evidence and factor lift</text>
  <rect x="268" y="96" width="830" height="126" rx="10" fill="#ffffff" stroke="#d9e2ec"/>
  <text x="292" y="130" class="m">Sydney Harbour · 2026-06-08 17:12 +10:00 · sunset_landscape · 3km</text>
  <text x="292" y="184" class="num">0.86</text><text x="408" y="160" class="h" font-size="28">Notify</text><text x="408" y="188" class="m">17:21-17:42 · west-northwest · Mrs Macquarie's Chair · 70-200mm</text>
  <rect x="1118" y="96" width="290" height="126" rx="10" fill="#ffffff" stroke="#d9e2ec"/>
  <text x="1140" y="132" class="h" font-size="16">Agent Decision</text><text x="1140" y="162" class="t">18 min later: strong sunset cloud color likely.</text><text x="1140" y="190" class="m">Move: Mrs Macquarie's Chair</text>
  <rect x="268" y="246" width="700" height="456" rx="10" fill="#f8fafc" stroke="#d9e2ec"/>
  <path d="M330 590 C430 500 525 610 630 515 C720 435 805 500 908 392" fill="none" stroke="#2563eb" stroke-width="5" opacity=".75"/>
  <path d="M598 470 L900 365 L816 592 Z" fill="#16a34a" opacity=".18" stroke="#16a34a"/>
  <circle cx="425" cy="520" r="10" fill="#2563eb"/><text x="439" y="525" class="small">Mrs M</text><circle cx="580" cy="460" r="10" fill="#2563eb"/><text x="594" y="465" class="small">Quay</text><circle cx="705" cy="535" r="10" fill="#2563eb"/><text x="719" y="540" class="small">Dawes</text><circle cx="835" cy="410" r="10" fill="#2563eb"/><text x="849" y="415" class="small">Kirribilli</text><circle cx="760" cy="625" r="10" fill="#2563eb"/><text x="774" y="630" class="small">Milsons</text>
  <text x="292" y="280" class="h" font-size="18">Harbour Spot Geometry</text><text x="292" y="306" class="m">sun cone, spot pins, water foreground and sightline direction</text>
  <rect x="988" y="246" width="420" height="456" rx="10" fill="#ffffff" stroke="#d9e2ec"/>
  <text x="1014" y="282" class="h" font-size="18">Photographic Features</text>
  <text x="1016" y="330" class="m">golden_hour</text><text x="1280" y="330" class="h" font-size="15">true</text><line x1="1016" y1="344" x2="1378" y2="344" stroke="#d9e2ec"/><text x="1016" y="372" class="m">high_cloud_cover</text><text x="1280" y="372" class="h" font-size="15">38</text><line x1="1016" y1="386" x2="1378" y2="386" stroke="#d9e2ec"/><text x="1016" y="414" class="m">low_cloud_cover</text><text x="1280" y="414" class="h" font-size="15">22</text><line x1="1016" y1="428" x2="1378" y2="428" stroke="#d9e2ec"/><text x="1016" y="456" class="m">visibility_km</text><text x="1280" y="456" class="h" font-size="15">18</text><line x1="1016" y1="470" x2="1378" y2="470" stroke="#d9e2ec"/><text x="1016" y="498" class="m">direction_match_score</text><text x="1280" y="498" class="h" font-size="15">0.81</text><line x1="1016" y1="512" x2="1378" y2="512" stroke="#d9e2ec"/><text x="1016" y="540" class="m">water_reflection_score</text><text x="1280" y="540" class="h" font-size="15">0.71</text><line x1="1016" y1="554" x2="1378" y2="554" stroke="#d9e2ec"/><text x="1016" y="582" class="m">spot_subject_match</text><text x="1280" y="582" class="h" font-size="15">0.50</text><line x1="1016" y1="596" x2="1378" y2="596" stroke="#d9e2ec"/><text x="1016" y="624" class="m">missing_evidence</text><text x="1280" y="624" class="h" font-size="15">none</text><line x1="1016" y1="638" x2="1378" y2="638" stroke="#d9e2ec"/>
  <rect x="268" y="730" width="540" height="236" rx="10" fill="#ffffff" stroke="#d9e2ec"/>
  <text x="292" y="766" class="h" font-size="18">Connector Evidence</text>
  <rect x="292" y="796" width="480" height="28" rx="6" fill="#f8fafc"/><circle cx="312" cy="810" r="6" fill="#16a34a"/><text x="330" y="815" class="t">Open-Meteo weather</text><text x="690" y="815" class="small">ok</text><rect x="292" y="834" width="480" height="28" rx="6" fill="#f8fafc"/><circle cx="312" cy="848" r="6" fill="#16a34a"/><text x="330" y="853" class="t">SunCalc astronomy</text><text x="690" y="853" class="small">ok</text><rect x="292" y="872" width="480" height="28" rx="6" fill="#f8fafc"/><circle cx="312" cy="886" r="6" fill="#16a34a"/><text x="330" y="891" class="t">OpenStreetMap geo</text><text x="690" y="891" class="small">ok</text><rect x="292" y="910" width="480" height="28" rx="6" fill="#f8fafc"/><circle cx="312" cy="924" r="6" fill="#16a34a"/><text x="330" y="929" class="t">Wikimedia/iNaturalist evidence</text><text x="690" y="929" class="small">ok</text>
  <rect x="832" y="730" width="576" height="236" rx="10" fill="#ffffff" stroke="#d9e2ec"/>
  <text x="858" y="766" class="h" font-size="18">15m Loop Runs</text>
  <line x1="872" y1="820" x2="1360" y2="820" stroke="#d9e2ec"/><text x="872" y="812" class="small">17:00</text><text x="1020" y="812" class="t">score 0.73</text><text x="1210" y="812" class="small">watch</text><line x1="872" y1="850" x2="1360" y2="850" stroke="#d9e2ec"/><text x="872" y="842" class="small">17:15</text><text x="1020" y="842" class="t">score 0.86</text><text x="1210" y="842" class="small">notify</text><line x1="872" y1="880" x2="1360" y2="880" stroke="#d9e2ec"/><text x="872" y="872" class="small">17:30</text><text x="1020" y="872" class="t">score 0.82</text><text x="1210" y="872" class="small">notify</text><line x1="872" y1="910" x2="1360" y2="910" stroke="#d9e2ec"/><text x="872" y="902" class="small">17:45</text><text x="1020" y="902" class="t">score 0.54</text><text x="1210" y="902" class="small">cooldown</text><line x1="872" y1="940" x2="1360" y2="940" stroke="#d9e2ec"/><text x="872" y="932" class="small">18:00</text><text x="1020" y="932" class="t">score 0.31</text><text x="1210" y="932" class="small">skip</text>
</svg>